<svg width="32" height="32" viewBox="0 0 32 32" fill="none" xmlns="http://www.w3.org/2000/svg">
<g clip-path="url(#clip0_1536_333)">
<rect width="32" height="32" rx="8" fill="#22DD8E"/>
<path fill-rule="evenodd" clip-rule="evenodd" d="M12.2524 24.6528C12.17 25.8281 12.8293 27.1466 14.0372 27.2268C15.2451 27.3069 15.5677 26.3497 15.8629 25.1685C16.3787 23.1054 16.8945 19.4948 16.8945 19.4948L17.4057 13.5563L19.4735 17.9476C19.4735 17.9476 19.9551 21.725 19.9893 23.6212C20.0109 24.8211 20.8609 25.9007 22.0525 25.6926C23.2441 25.4845 23.3763 24.5416 23.5995 23.1054C23.9775 20.6725 23.5998 16.916 23.5998 16.916L21.7942 10.3843C21.7942 9.70164 26.8192 9.2581 20.3664 0.288855C19.1704 -1.37366 16.8945 -3.19985 12.7682 -3.19985C8.64188 -3.19985 6.06297 -1.65256 5.03139 1.44218C3.99981 4.53692 3.99981 6.13087 3.99981 9.17904C3.99981 11.758 5.03139 13.8211 7.09455 14.3369C8.02979 14.5707 8.12613 13.8211 8.12613 13.8211C8.12613 13.8211 8.12585 15.0928 8.12585 15.3128C8.12585 16.4907 9.10729 17.4456 10.3179 17.4456C12.5621 17.4456 12.5028 15.1696 12.639 13.5563C12.639 13.5563 12.3244 23.6255 12.2524 24.6528Z" fill="black"/>
<path d="M21.0215 8.14746L22.0531 11.2422V10.2106L21.0215 8.14746Z" fill="#22DD8E"/>
</g>
<defs>
<clipPath id="clip0_1536_333">
<rect width="32" height="32" rx="8" fill="white"/>
</clipPath>
</defs>
</svg>
